PathFileType	4	(X/Y/Z)	/Users/itak/Documents/Research/Walk-IL/dataset/trc/00138_00007.trc
DataRate	CameraRate	NumFrames	NumMarkers	Units	OrigDataRate	OrigDataStartFrame	OrigNumFrames
100.000000	100.000000	4	53	mm	100.000000	70	563
Frame#	Time	RPSI			LPSI			L3			STRN			T10			C7			CLAV			RBAK			LBAK			LSHO			LUPA			LAEL			LAOL			LWTS			LWPS			LFRA			LIFD			LHPS			LHTS			RSHO			RUPA			RAEL			RAOL			RWTS			RWPS			RFRA			RIFD			RHTS			RHPS			RBHD			LFHD			RFHD			LBHD			LHIP			RHIP			RASI			LASI			LKNE			LTHI			LANK			LTIP			LTOE			LMT1			LMT5			LHEE			RKNE			RTHI			RANK			RTIP			RTOE			RMT1			RMT5			RHEE			
		X1	Y1	Z1	X2	Y2	Z2	X3	Y3	Z3	X4	Y4	Z4	X5	Y5	Z5	X6	Y6	Z6	X7	Y7	Z7	X8	Y8	Z8	X9	Y9	Z9	X10	Y10	Z10	X11	Y11	Z11	X12	Y12	Z12	X13	Y13	Z13	X14	Y14	Z14	X15	Y15	Z15	X16	Y16	Z16	X17	Y17	Z17	X18	Y18	Z18	X19	Y19	Z19	X20	Y20	Z20	X21	Y21	Z21	X22	Y22	Z22	X23	Y23	Z23	X24	Y24	Z24	X25	Y25	Z25	X26	Y26	Z26	X27	Y27	Z27	X28	Y28	Z28	X29	Y29	Z29	X30	Y30	Z30	X31	Y31	Z31	X32	Y32	Z32	X33	Y33	Z33	X34	Y34	Z34	X35	Y35	Z35	X36	Y36	Z36	X37	Y37	Z37	X38	Y38	Z38	X39	Y39	Z39	X40	Y40	Z40	X41	Y41	Z41	X42	Y42	Z42	X43	Y43	Z43	X44	Y44	Z44	X45	Y45	Z45	X46	Y46	Z46	X47	Y47	Z47	X48	Y48	Z48	X49	Y49	Z49	X50	Y50	Z50	X51	Y51	Z51	X52	Y52	Z52	X53	Y53	Z53	

71	0.7000000000000001	-886.633544921875	1130.361206054688	1158.893310546875	-887.3783569335938	1131.335083007812	1024.36962890625	-894.299072265625	1162.134521484375	1088.665283203125	-681.5922241210938	1365.86181640625	1087.866455078125	-937.6842651367188	1312.514038085938	1086.219360351562	-907.7981567382812	1605.309814453125	1072.310546875	-721.6334838867188	1500.049072265625	1083.159912109375	-960.9766845703125	1419.944458007812	1159.568725585938	-912.8624877929688	1585.44580078125	969.7849731445312	-824.605224609375	1572.37255859375	902.2640380859375	-840.692626953125	1438.570434570312	832.8303833007812	-815.6148071289062	1218.566284179688	816.648681640625	-880.3093872070312	1205.135131835938	875.9016723632812	-698.9938354492188	967.0281982421875	861.0430908203125	-781.0800170898438	936.81884765625	837.6062622070312	-793.1633911132812	1103.068969726562	814.9639282226562	-673.8699340820312	773.7286987304688	885.1529541015625	-749.2033081054688	862.482177734375	840.5347290039062	-681.955810546875	878.0675659179688	854.4598388671875	-854.7636108398438	1586.554809570312	1254.539916992188	-871.664306640625	1512.831665039062	1318.34619140625	-875.4100952148438	1218.19140625	1338.174438476562	-882.4302368164062	1216.765258789062	1242.614379882812	-722.5633544921875	980.2260131835938	1326.465698242188	-796.8761596679688	961.5260009765625	1357.664916992188	-849.2391357421875	1145.363891601562	1354.872680664062	-686.8610229492188	788.4400634765625	1306.657470703125	-687.3877563476562	873.5636596679688	1331.427734375	-754.96875	861.5787353515625	1359.236450195312	-855.2384643554688	1780.23095703125	1159.094970703125	-700.7666625976562	1839.673828125	1013.667663574219	-689.5748901367188	1841.65380859375	1143.5341796875	-874.145751953125	1783.0087890625	1025.448486328125	-794.31201171875	1041.206787109375	917.1004028320312	-756.2255249023438	1034.766845703125	1274.604736328125	-677.3945922851562	1108.127807617188	1222.07421875	-687.0476684570312	1107.620483398438	956.6417236328125	-765.1572875976562	539.5414428710938	942.30078125	-787.5514526367188	685.7254638671875	917.2003784179688	-884.551513671875	38.28421783447266	952.0861206054688	-870.8017578125	294.5849304199219	919.708740234375	-648.7227783203125	40.46356582641602	993.9265747070312	-728.0701904296875	43.77189636230469	1034.44970703125	-761.4885864257812	38.7755126953125	920.1558227539062	-950.9602661132812	40.83148574829102	1016.42431640625	-770.3518676757812	541.9252319335938	1240.109497070312	-738.6860961914062	821.017822265625	1266.292114257812	-877.6107788085938	33.84982681274414	1224.989379882812	-798.4446411132812	409.6481323242188	1252.34912109375	-647.4454345703125	47.49458694458008	1163.446166992188	-709.1448974609375	37.67056274414062	1122.808471679688	-743.9632568359375	41.76709365844727	1241.251342773438	-937.68212890625	34.30871200561523	1178.462768554688	
72	0.71	-886.6373291015625	1130.379760742188	1158.94287109375	-887.4158935546875	1131.341186523438	1024.404052734375	-894.3267211914062	1162.176879882812	1088.71826171875	-681.5285034179688	1365.85986328125	1087.849243164062	-937.6541748046875	1312.594604492188	1086.299438476562	-907.7177124023438	1605.365356445312	1072.323852539062	-721.5300903320312	1500.050048828125	1083.135620117188	-960.890869140625	1420.0390625	1159.647216796875	-912.7822265625	1585.47509765625	969.81103515625	-824.5418701171875	1572.369506835938	902.256591796875	-840.6897583007812	1438.565551757812	832.8470458984375	-815.658935546875	1218.546752929688	816.72900390625	-880.3675537109375	1205.139526367188	875.9940795898438	-699.121826171875	966.958984375	861.1419677734375	-781.2473754882812	936.7991943359375	837.7188720703125	-793.2566528320312	1103.0419921875	815.0596313476562	-674.052490234375	773.6476440429688	885.31494140625	-749.3726806640625	862.429443359375	840.6580200195312	-682.1387939453125	877.9948120117188	854.5574340820312	-854.5772705078125	1586.626220703125	1254.538330078125	-871.519775390625	1512.912719726562	1318.34326171875	-875.3658447265625	1218.276000976562	1338.205932617188	-882.4047241210938	1216.850219726562	1242.63330078125	-722.5694580078125	980.3001708984375	1326.495849609375	-796.8783569335938	961.5936889648438	1357.694580078125	-849.2190551757812	1145.420532226562	1354.887817382812	-686.8709716796875	788.4840087890625	1306.671264648438	-687.3936157226562	873.5800170898438	1331.444946289062	-754.9705200195312	861.64404296875	1359.2626953125	-855.09912109375	1780.280395507812	1159.01220703125	-700.6928100585938	1839.682006835938	1013.567016601562	-689.4739379882812	1841.7080078125	1143.409423828125	-874.0233764648438	1783.004150390625	1025.369384765625	-794.503173828125	1041.223266601562	917.1211547851562	-756.2015380859375	1034.768798828125	1274.599487304688	-677.3458862304688	1108.126953125	1222.035034179688	-687.1666259765625	1107.6083984375	956.6197509765625	-765.2811889648438	539.5523681640625	942.2883911132812	-787.6696166992188	685.745849609375	917.1875610351562	-884.557373046875	38.27877807617188	952.0734252929688	-870.8759765625	294.5872802734375	919.710693359375	-648.7369995117188	40.47466278076172	993.9239501953125	-728.0742797851562	43.77212142944336	1034.445922851562	-761.4932861328125	38.7751579284668	920.1487426757812	-950.98828125	40.82931518554688	1016.383117675781	-770.38232421875	541.9213256835938	1240.12744140625	-738.6434326171875	821.0126953125	1266.279907226562	-877.6006469726562	33.8448486328125	1224.998657226562	-798.465576171875	409.6436462402344	1252.369384765625	-647.4571533203125	47.49887084960938	1163.4521484375	-709.147705078125	37.67399978637695	1122.813720703125	-743.9628295898438	41.76716995239258	1241.257446289062	-937.690185546875	34.30546569824219	1178.463623046875	
73	0.72	-886.6395874023438	1130.397705078125	1158.991455078125	-887.451171875	1131.34765625	1024.435424804688	-894.351318359375	1162.21630859375	1088.770141601562	-681.4656982421875	1365.857055664062	1087.825927734375	-937.6148681640625	1312.6767578125	1086.381225585938	-907.6384887695312	1605.416870117188	1072.340942382812	-721.4198608398438	1500.04833984375	1083.1015625	-960.7992553710938	1420.1318359375	1159.727905273438	-912.7025756835938	1585.506225585938	969.8405151367188	-824.4769287109375	1572.366088867188	902.2464599609375	-840.6878662109375	1438.557983398438	832.8630981445312	-815.7122802734375	1218.524047851562	816.8125	-880.4306030273438	1205.141235351562	876.0934448242188	-699.271240234375	966.8856811523438	861.2454833984375	-781.4261474609375	936.7813720703125	837.8367919921875	-793.3641967773438	1103.016235351562	815.1527099609375	-674.2412719726562	773.5654296875	885.4937744140625	-749.5648803710938	862.3741455078125	840.7958374023438	-682.3230590820312	877.9111328125	854.642578125	-854.3609008789062	1586.700561523438	1254.53173828125	-871.3506469726562	1512.999389648438	1318.341918945312	-875.2980346679688	1218.359252929688	1338.241455078125	-882.3688354492188	1216.929809570312	1242.653076171875	-722.5618896484375	980.369384765625	1326.521362304688	-796.872802734375	961.660400390625	1357.728637695312	-849.1865844726562	1145.478759765625	1354.910522460938	-686.8943481445312	788.5205688476562	1306.674560546875	-687.400634765625	873.5910034179688	1331.456176757812	-754.9625244140625	861.7036743164062	1359.292846679688	-854.9521484375	1780.326782226562	1158.93359375	-700.6334838867188	1839.696166992188	1013.46484375	-689.3641357421875	1841.762817382812	1143.273193359375	-873.9064331054688	1783.000610351562	1025.29736328125	-794.6843872070312	1041.2373046875	917.1392822265625	-756.1744384765625	1034.770874023438	1274.593139648438	-677.2902221679688	1108.12744140625	1221.99609375	-687.2749633789062	1107.595703125	956.5953979492188	-765.4049682617188	539.5618896484375	942.2786254882812	-787.7841796875	685.761962890625	917.1767578125	-884.5638427734375	38.27304840087891	952.060546875	-870.9525756835938	294.5900268554688	919.7109985351562	-648.7530517578125	40.48407363891602	993.92041015625	-728.0784912109375	43.77172470092773	1034.4404296875	-761.4988403320312	38.77412796020508	920.1431274414062	-951.0135498046875	40.82595443725586	1016.344543457031	-770.411376953125	541.91552734375	1240.145751953125	-738.596923828125	821.0052490234375	1266.268798828125	-877.5878295898438	33.83978652954102	1225.009521484375	-798.484619140625	409.6395568847656	1252.38916015625	-647.4664306640625	47.50272369384766	1163.457153320312	-709.1497192382812	37.67927169799805	1122.819091796875	-743.964111328125	41.7663459777832	1241.262817382812	-937.69775390625	34.30248641967773	1178.464599609375	
74	0.73	-886.6408081054688	1130.415283203125	1159.039306640625	-887.4852294921875	1131.356201171875	1024.46484375	-894.3728637695312	1162.253051757812	1088.822387695312	-681.4019775390625	1365.853393554688	1087.796508789062	-937.56640625	1312.760620117188	1086.463256835938	-907.5581665039062	1605.46484375	1072.36083984375	-721.301513671875	1500.045043945312	1083.057983398438	-960.7040405273438	1420.221801757812	1159.807495117188	-912.6231689453125	1585.5390625	969.8724975585938	-824.4110107421875	1572.361938476562	902.2327880859375	-840.689208984375	1438.547241210938	832.878173828125	-815.7767944335938	1218.497802734375	816.8978271484375	-880.4992065429688	1205.140258789062	876.2010498046875	-699.4420166015625	966.8107299804688	861.3524169921875	-781.6173706054688	936.763671875	837.9623413085938	-793.4880981445312	1102.990966796875	815.2427978515625	-674.4348754882812	773.4852294921875	885.6801147460938	-749.7792358398438	862.3175048828125	840.9467163085938	-682.5133666992188	877.8167724609375	854.7162475585938	-854.1173095703125	1586.777099609375	1254.519165039062	-871.158203125	1513.09130859375	1318.341552734375	-875.2085571289062	1218.439697265625	1338.279052734375	-882.3207397460938	1217.001831054688	1242.671508789062	-722.5416870117188	980.4323120117188	1326.544555664062	-796.8612670898438	961.7260131835938	1357.766967773438	-849.1412353515625	1145.537475585938	1354.939819335938	-686.929931640625	788.5487060546875	1306.673706054688	-687.4097290039062	873.6056518554688	1331.460815429688	-754.9505004882812	861.7578125	1359.326049804688	-854.7996215820312	1780.370727539062	1158.860717773438	-700.5855102539062	1839.715698242188	1013.359741210938	-689.2434692382812	1841.817504882812	1143.126586914062	-873.7935791015625	1782.9990234375	1025.232421875	-794.850341796875	1041.247924804688	917.1550903320312	-756.1452026367188	1034.773193359375	1274.586059570312	-677.2293701171875	1108.129028320312	1221.95751953125	-687.3727416992188	1107.583129882812	956.5692749023438	-765.52734375	539.5703125	942.271240234375	-787.8955078125	685.7745971679688	917.1672973632812	-884.56982421875	38.26763916015625	952.0485229492188	-871.0304565429688	294.5935363769531	919.7095947265625	-648.7694702148438	40.49289703369141	993.9153442382812	-728.0828247070312	43.77085113525391	1034.433471679688	-761.50439453125	38.77275848388672	920.13916015625	-951.0330200195312	40.82107543945312	1016.311462402344	-770.4393310546875	541.9083862304688	1240.1630859375	-738.5604248046875	820.9959716796875	1266.262451171875	-877.5733032226562	33.83450317382812	1225.021484375	-798.50341796875	409.6353454589844	1252.408325195312	-647.473876953125	47.50623321533203	1163.460693359375	-709.1502685546875	37.68664169311523	1122.824584960938	-743.966552734375	41.76488876342773	1241.26708984375	-937.704345703125	34.29978561401367	1178.465576171875	
